<svg width="35" height="36" viewBox="0 0 35 36" fill="none" xmlns="http://www.w3.org/2000/svg">
<path d="M19.5828 12.906C19.6282 13.3297 19.85 13.5486 20.5715 13.8819C20.5594 13.2181 20.5371 12.5722 20.5045 11.9453C19.8544 12.0799 19.5147 12.2728 19.5828 12.906Z" fill="url(#paint0_linear_1_112)"/>
<path d="M21.9438 15.9038C21.7077 15.7149 21.4419 15.5997 21.2658 15.5234C21.26 16.3068 21.2384 17.0917 21.2021 17.8743C22.5382 17.6986 22.6459 16.4666 21.9438 15.9038Z" fill="url(#paint1_linear_1_112)"/>
<path d="M20.856 7.85839C15.4088 7.07755 12.2264 11.3552 12.6711 15.84C13.2048 21.2199 19.0664 25.6832 24.1058 22.709C29.7368 19.3854 28.7126 9.79973 20.856 7.85839Z" fill="url(#paint2_linear_1_112)"/>
<path d="M8.72149 11.7304C11.591 8.89807 11.1429 4.37459 6.97213 4.36328C3.60995 4.66453 1.05344 7.46659 0.612718 9.88971C0.562569 10.1651 0.532919 10.5407 0.546096 10.8204C0.715944 14.3454 5.52952 14.8811 8.72149 11.7304Z" fill="url(#paint3_linear_1_112)"/>
<path d="M14.8705 7.78497C15.9847 6.68501 15.8108 4.9282 14.1911 4.92383C12.8854 5.0409 11.8926 6.12919 11.7213 7.07014C11.7019 7.177 11.6902 7.32288 11.6957 7.43156C11.7616 8.80032 13.631 9.00856 14.8705 7.78497Z" fill="url(#paint4_linear_1_112)"/>
<path d="M28.5546 10.2216C29.7132 13.5463 32.1628 16.6547 33.5 16.4979C35.4789 16.2652 32.9934 9.16174 29.4409 6.61972C29.3676 6.57632 29.2725 6.51469 29.1971 6.47566C27.5572 5.62553 27.8343 8.15442 28.5546 10.2216Z" fill="url(#paint5_linear_1_112)"/>
<path d="M26.6041 7.83564C27.2692 7.58217 25.8292 5.65615 24.3935 5.21302C24.3646 5.20682 24.3269 5.19661 24.2976 5.19187C23.6614 5.08574 23.9638 5.82756 24.3818 6.38812C25.0539 7.29004 26.1549 8.00706 26.6041 7.83564Z" fill="url(#paint6_linear_1_112)"/>
<path d="M14.8377 2.50742C15.3736 5.08774 20.1334 6.69756 22.1185 5.49147C24.2847 4.1756 21.5123 0.981116 17.6237 0.312605C14.8966 -0.0138091 14.688 1.78639 14.8377 2.50742Z" fill="url(#paint7_linear_1_112)"/>
<path d="M31.3268 25.9184C31.281 25.8951 31.2331 25.8772 31.187 25.8546C31.187 25.8546 31.187 25.8546 31.1866 25.8546C31.1866 25.8546 31.1866 25.8546 31.1862 25.8546C31.1862 25.8546 31.1862 25.8546 31.1859 25.8546C31.1859 25.8546 31.1859 25.8546 31.1855 25.8546C31.1855 25.8546 31.1855 25.8546 31.1851 25.8546C31.1851 25.8546 31.1851 25.8546 31.1848 25.8546C31.1848 25.8546 31.1848 25.8546 31.1844 25.8546C31.1844 25.8546 31.1844 25.8546 31.184 25.8546C31.1782 25.8517 31.1694 25.8491 31.1632 25.8477C31.1522 25.8575 31.1522 25.8575 31.1108 25.972C30.9234 26.4892 30.7642 26.8776 30.6606 27.1249C30.6555 27.1373 30.6481 27.1544 30.6496 27.1653C30.6529 27.1912 31.0823 27.3612 31.0867 27.3623C31.116 27.3707 31.1936 27.3856 31.2832 27.3459C31.4977 27.2503 31.7185 26.8207 31.7287 26.4779C31.7349 26.2893 31.7086 26.1179 31.3268 25.9184Z" fill="url(#paint8_linear_1_112)"/>
<path d="M31.8037 23.8294C31.8033 23.8294 31.8033 23.8294 31.8037 23.8294C31.8033 23.8294 31.8033 23.829 31.8033 23.829C31.7825 23.8213 31.7752 23.8264 31.7616 23.8797C31.7203 24.0431 31.6972 24.1332 31.5724 24.5573C31.4479 24.9797 31.4479 24.9797 31.4483 24.9815C31.453 25.007 31.8249 25.2393 32.0043 25.1379C32.1771 25.0402 32.3447 24.6335 32.2935 24.298C32.2583 24.0744 32.1621 24.0223 31.8037 23.8294Z" fill="url(#paint9_linear_1_112)"/>
<path d="M32.9951 20.1357C30.8606 18.7378 28.806 22.0388 28.1434 24.959C27.5753 27.4638 27.6979 31.0901 29.7657 30.9176C32.7714 30.6671 35.8173 22.8273 32.9951 20.1357Z" fill="url(#paint10_linear_1_112)"/>
<path d="M28.7081 18.4307C28.5503 19.1269 28.5843 20.1346 29.159 20.0868C29.9944 20.0171 30.841 17.838 30.0566 17.09C29.4632 16.7016 28.8922 17.6192 28.7081 18.4307Z" fill="url(#paint11_linear_1_112)"/>
<path d="M5.29578 17.373C0.967224 17.694 -0.0240436 21.8816 0.945626 24.6534C2.17226 28.16 6.238 30.1977 8.87503 27.5572C11.8843 24.5436 10.9498 17.6232 5.29578 17.373Z" fill="url(#paint12_linear_1_112)"/>
<path d="M15.6624 26.0029C16.3879 24.597 15.2744 22.2497 13.2425 22.7957C11.7449 23.3953 11.8672 24.9905 12.5243 25.864C13.3556 26.969 15.0266 27.2349 15.6624 26.0029Z" fill="url(#paint13_linear_1_112)"/>
<path d="M9.73312 13.1361C8.29014 12.9155 7.64809 14.2135 7.75571 15.1945C7.89188 16.436 9.06983 17.4098 10.1343 16.7427C11.3489 15.9819 11.5674 13.6434 9.73312 13.1361Z" fill="url(#paint14_linear_1_112)"/>
<path d="M20.1822 26.1353C16.839 25.6076 14.6273 28.5901 14.7331 31.5972C14.7353 31.6573 15.1193 37.4992 18.9991 35.2541C23.0077 32.9353 24.3354 27.3735 20.1822 26.1353Z" fill="url(#paint15_linear_1_112)"/>
<path d="M25.8209 24.5356C24.405 24.3121 23.4682 25.5754 23.5133 26.8486C23.514 26.8742 23.6769 29.348 25.3197 28.3972C27.0175 27.415 27.5794 25.0597 25.8209 24.5356Z" fill="url(#paint16_linear_1_112)"/>
<defs>
<linearGradient id="paint0_linear_1_112" x1="32.3245" y1="23.718" x2="7.66095" y2="1.18049" gradientUnits="userSpaceOnUse">
<stop offset="5.32779e-09" stop-color="#095539"/>
<stop offset="1" stop-color="#01AA7F"/>
</linearGradient>
<linearGradient id="paint1_linear_1_112" x1="30.8638" y1="25.3157" x2="6.20026" y2="2.77811" gradientUnits="userSpaceOnUse">
<stop offset="5.32779e-09" stop-color="#095539"/>
<stop offset="1" stop-color="#01AA7F"/>
</linearGradient>
<linearGradient id="paint2_linear_1_112" x1="30.8293" y1="25.354" x2="6.16572" y2="2.8165" gradientUnits="userSpaceOnUse">
<stop offset="5.32779e-09" stop-color="#095539"/>
<stop offset="1" stop-color="#01AA7F"/>
</linearGradient>
<linearGradient id="paint3_linear_1_112" x1="27.4857" y1="29.013" x2="2.82214" y2="6.47543" gradientUnits="userSpaceOnUse">
<stop offset="5.32779e-09" stop-color="#095539"/>
<stop offset="1" stop-color="#01AA7F"/>
</linearGradient>
<linearGradient id="paint4_linear_1_112" x1="32.3236" y1="23.7183" x2="7.66007" y2="1.18076" gradientUnits="userSpaceOnUse">
<stop offset="5.32779e-09" stop-color="#095539"/>
<stop offset="1" stop-color="#01AA7F"/>
</linearGradient>
<linearGradient id="paint5_linear_1_112" x1="37.8662" y1="17.6531" x2="13.2026" y2="-4.88444" gradientUnits="userSpaceOnUse">
<stop offset="5.32779e-09" stop-color="#095539"/>
<stop offset="1" stop-color="#01AA7F"/>
</linearGradient>
<linearGradient id="paint6_linear_1_112" x1="37.7526" y1="17.7763" x2="13.089" y2="-4.76121" gradientUnits="userSpaceOnUse">
<stop offset="5.32779e-09" stop-color="#095539"/>
<stop offset="1" stop-color="#01AA7F"/>
</linearGradient>
<linearGradient id="paint7_linear_1_112" x1="36.4402" y1="19.2126" x2="11.7767" y2="-3.32496" gradientUnits="userSpaceOnUse">
<stop offset="5.32779e-09" stop-color="#095539"/>
<stop offset="1" stop-color="#01AA7F"/>
</linearGradient>
<linearGradient id="paint8_linear_1_112" x1="30.3225" y1="25.9082" x2="5.65891" y2="3.37068" gradientUnits="userSpaceOnUse">
<stop offset="5.32779e-09" stop-color="#095539"/>
<stop offset="1" stop-color="#01AA7F"/>
</linearGradient>
<linearGradient id="paint9_linear_1_112" x1="31.6909" y1="24.4114" x2="7.02736" y2="1.87384" gradientUnits="userSpaceOnUse">
<stop offset="5.32779e-09" stop-color="#095539"/>
<stop offset="1" stop-color="#01AA7F"/>
</linearGradient>
<linearGradient id="paint10_linear_1_112" x1="30.8399" y1="25.3419" x2="6.17635" y2="2.80431" gradientUnits="userSpaceOnUse">
<stop offset="5.32779e-09" stop-color="#095539"/>
<stop offset="1" stop-color="#01AA7F"/>
</linearGradient>
<linearGradient id="paint11_linear_1_112" x1="33.6137" y1="22.3073" x2="8.95018" y2="-0.230293" gradientUnits="userSpaceOnUse">
<stop offset="5.32779e-09" stop-color="#095539"/>
<stop offset="1" stop-color="#01AA7F"/>
</linearGradient>
<linearGradient id="paint12_linear_1_112" x1="20.6155" y1="36.5317" x2="-4.04808" y2="13.9942" gradientUnits="userSpaceOnUse">
<stop offset="5.32779e-09" stop-color="#095539"/>
<stop offset="1" stop-color="#01AA7F"/>
</linearGradient>
<linearGradient id="paint13_linear_1_112" x1="23.51" y1="33.3621" x2="-1.15355" y2="10.8245" gradientUnits="userSpaceOnUse">
<stop offset="5.32779e-09" stop-color="#095539"/>
<stop offset="1" stop-color="#01AA7F"/>
</linearGradient>
<linearGradient id="paint14_linear_1_112" x1="26.2974" y1="30.3141" x2="1.63387" y2="7.77655" gradientUnits="userSpaceOnUse">
<stop offset="5.32779e-09" stop-color="#095539"/>
<stop offset="1" stop-color="#01AA7F"/>
</linearGradient>
<linearGradient id="paint15_linear_1_112" x1="22.546" y1="34.4189" x2="-2.11751" y2="11.8814" gradientUnits="userSpaceOnUse">
<stop offset="5.32779e-09" stop-color="#095539"/>
<stop offset="1" stop-color="#01AA7F"/>
</linearGradient>
<linearGradient id="paint16_linear_1_112" x1="27.6695" y1="28.8123" x2="3.0059" y2="6.27472" gradientUnits="userSpaceOnUse">
<stop offset="5.32779e-09" stop-color="#095539"/>
<stop offset="1" stop-color="#01AA7F"/>
</linearGradient>
</defs>
</svg>
