<svg
  xmlns="http://www.w3.org/2000/svg"
  width="746"
  height="209"
  viewBox="0 0 746 209"
  fill="none"
>
  <path
    fill-rule="evenodd"
    clip-rule="evenodd"
    d="M501.769 85.8767C495.661 85.8767 490.736 83.9758 486.994 80.174C483.285 76.3722 481.43 71.0528 481.43 64.2159V25.303C481.43 17.1242 483.045 10.8624 486.275 6.51743C489.537 2.17248 494.829 0 502.153 0C506.15 0 509.7 0.734808 512.802 2.20443C515.936 3.67404 518.398 5.87847 520.189 8.8177C521.98 11.725 522.875 15.399 522.875 19.8398V34.4082H506.086V21.9484C506.086 19.4245 505.766 17.7312 505.127 16.8686C504.487 15.9741 503.496 15.5268 502.153 15.5268C500.586 15.5268 499.53 16.1019 498.987 17.252C498.443 18.3702 498.171 19.8718 498.171 21.7567V63.9763C498.171 66.3085 498.507 67.9538 499.178 68.9123C499.882 69.8707 500.873 70.3499 502.153 70.3499C503.592 70.3499 504.599 69.7589 505.175 68.5768C505.782 67.3947 506.086 65.8612 506.086 63.9763V48.7849H523.067V64.743C523.067 72.155 521.196 77.5383 517.455 80.8928C513.713 84.2154 508.484 85.8767 501.769 85.8767ZM725.181 85.8767C718.433 85.8767 713.269 83.848 709.687 79.7906C706.137 75.7012 704.362 69.8068 704.362 62.1073V22.0443C704.362 14.824 706.121 9.34485 709.639 5.60691C713.189 1.86897 718.369 0 725.181 0C731.993 0 737.157 1.86897 740.675 5.60691C744.225 9.34485 746 14.824 746 22.0443V62.1073C746 69.8068 744.209 75.7012 740.627 79.7906C737.077 83.848 731.929 85.8767 725.181 85.8767ZM725.325 70.3499C727.883 70.3499 729.162 67.8739 729.162 62.922V21.7567C729.162 17.6035 727.915 15.5268 725.421 15.5268C722.607 15.5268 721.2 17.6514 721.2 21.9005V63.0178C721.2 65.6376 721.519 67.5225 722.159 68.6726C722.799 69.7908 723.854 70.3499 725.325 70.3499ZM673.482 85.009V17.0263H663.593V0.867188H700.026V17.0263H690.137V85.009H673.482ZM619.353 0.867188V85.009H636.183V51.687H643.138C647.873 51.687 651.521 50.6511 654.083 48.5794C656.677 46.5078 658.477 43.5915 659.482 39.8306C660.487 36.0378 660.99 31.5917 660.99 26.4922C660.99 21.2015 660.39 16.6438 659.19 12.8192C657.99 8.99453 655.996 6.04637 653.207 3.9747C650.451 1.90302 646.706 0.867188 641.971 0.867188H619.353ZM637.156 36.5797H636.183V16.2135H638.08C640.674 16.2135 642.312 17.09 642.993 18.8429C643.706 20.564 644.063 23.0182 644.063 26.2054C644.063 29.6157 643.706 32.1973 642.993 33.9502C642.279 35.7032 640.333 36.5797 637.156 36.5797ZM585.886 85.009V57.3283L572.511 0.867188H589.122L593.787 29.3607L598.452 0.867188H615.016L601.688 57.3283V85.009H585.886ZM529.139 0.867188V85.009H546.016V46.6193C548.228 46.6193 549.824 46.9221 550.804 47.5277C551.815 48.1014 552.321 49.6153 552.321 52.0694V85.009H568.771V53.169C568.771 49.8543 568.234 47.1611 567.159 45.0895C566.116 42.9859 564.283 41.6632 561.66 41.1214C564.852 40.0696 567.017 38.1733 568.155 35.4323C569.324 32.6913 569.909 29.026 569.909 24.4365C569.909 19.6876 569.529 15.5601 568.771 12.0542C568.044 8.51645 566.59 5.77546 564.409 3.83128C562.229 1.85522 559.005 0.867188 554.739 0.867188H529.139ZM550.14 32.0379H546.11V16.4526H549.998C551.388 16.4526 552.337 16.9625 552.842 17.9824C553.348 19.0023 553.601 21.1537 553.601 24.4365C553.601 29.5041 552.447 32.0379 550.14 32.0379ZM431.552 60.618L426.781 85.0087H440.42L445.19 60.618H453.238L448.467 85.0087H462.106L466.877 60.618H474.298V49.5008H469.093L470.443 42.5525H477.093V31.4353H472.611L477.093 8.67383H463.407L458.925 31.4353H450.925L455.407 8.67383H441.721L437.239 31.4353H429.769V42.5525H435.07L433.721 49.5008H426.974V60.618H431.552ZM455.407 49.5008H447.407L448.757 42.5525H456.756L455.407 49.5008ZM386.448 85.1704V38.306H383.824V27.2862H386.448V23.1689C386.448 16.6565 389.704 13.4004 396.217 13.4004C399.284 13.4004 401.76 13.7906 403.644 14.571V23.4918C402.971 23.3572 402.527 23.29 402.312 23.29C401.478 23.29 400.966 23.5994 400.778 24.2184C400.59 24.8104 400.495 25.5773 400.495 26.5192V27.2862H403.644V38.4674H400.778V85.1704H386.448ZM343.539 67.0447C343.539 79.558 349.567 85.8147 361.623 85.8147C373.706 85.8147 379.747 79.558 379.747 67.0447V42.7446C379.747 37.0396 378.146 32.4917 374.944 29.101C371.741 25.6834 367.301 23.9746 361.623 23.9746C355.972 23.9746 351.545 25.6834 348.343 29.101C345.14 32.4917 343.539 37.0396 343.539 42.7446V67.0447ZM364.206 73.3821C363.695 74.2432 362.834 74.6738 361.623 74.6738C360.412 74.6738 359.538 74.2432 358.999 73.3821C358.488 72.494 358.232 71.3773 358.232 70.0317V40.4438C358.232 36.9185 359.363 35.1559 361.623 35.1559C363.884 35.1559 365.014 36.9185 365.014 40.4438V70.0317C365.014 71.3773 364.745 72.494 364.206 73.3821ZM304.143 85.1684V14.125H318.836V85.1684H304.143ZM270.438 83.3928C272.994 85.0074 276.425 85.8147 280.731 85.8147C285.306 85.8147 288.912 85.0477 291.549 83.5139C294.213 81.953 296.097 79.6522 297.2 76.6113C298.331 73.5436 298.896 69.7492 298.896 65.2282V61.7972H284.525V67.6098C284.525 69.7088 284.337 71.4176 283.96 72.7362C283.584 74.0279 282.642 74.6738 281.135 74.6738C280.085 74.6738 279.318 74.3374 278.834 73.6646C278.376 72.9919 278.08 72.1442 277.946 71.1216C277.811 70.0721 277.744 69.0092 277.744 67.9327V56.2267H298.734C298.842 54.3968 298.896 50.8177 298.896 45.4895V41.0896C298.896 29.6796 293.083 23.9746 281.458 23.9746C275.807 23.9746 271.366 25.4278 268.137 28.3341C264.908 31.2135 263.293 35.4653 263.293 41.0896V65.4301C263.293 69.7088 263.845 73.3686 264.948 76.4095C266.051 79.4504 267.881 81.7781 270.438 83.3928ZM284.525 49.0416H277.663V40.8878C277.663 38.6273 277.973 37.0396 278.592 36.1247C279.238 35.2097 280.139 34.7522 281.296 34.7522C282.373 34.7522 283.18 35.2366 283.718 36.2054C284.256 37.1472 284.525 38.708 284.525 40.8878V49.0416ZM233.382 85.1695L223.654 24.6211H238.145L241.616 65.0674L245.532 24.6211H259.983L250.093 85.1695H233.382ZM191.967 83.3928C194.524 85.0074 197.955 85.8147 202.26 85.8147C206.835 85.8147 210.441 85.0477 213.078 83.5139C215.743 81.953 217.626 79.6522 218.73 76.6113C219.86 73.5436 220.425 69.7492 220.425 65.2282V61.7972H206.055V67.6098C206.055 69.7088 205.866 71.4176 205.49 72.7362C205.113 74.0279 204.171 74.6738 202.664 74.6738C201.615 74.6738 200.848 74.3374 200.363 73.6646C199.906 72.9919 199.61 72.1442 199.475 71.1216C199.341 70.0721 199.273 69.0092 199.273 67.9327V56.2267H220.263C220.371 54.3968 220.425 50.8177 220.425 45.4895V41.0896C220.425 29.6796 214.612 23.9746 202.987 23.9746C197.336 23.9746 192.896 25.4278 189.666 28.3341C186.437 31.2135 184.822 35.4653 184.822 41.0896V65.4301C184.822 69.7088 185.374 73.3686 186.477 76.4095C187.581 79.4504 189.411 81.7781 191.967 83.3928ZM206.055 49.0416H199.193V40.8878C199.193 38.6273 199.502 37.0396 200.121 36.1247C200.767 35.2097 201.668 34.7522 202.826 34.7522C203.902 34.7522 204.709 35.2366 205.247 36.2054C205.786 37.1472 206.055 38.708 206.055 40.8878V49.0416ZM164.801 85.1684V14.125H179.494V85.1684H164.801ZM124.677 83.352C126.05 84.9935 128.687 85.8143 132.589 85.8143C134.338 85.8143 136.061 85.6528 137.756 85.3299C139.451 85.0339 140.46 84.8321 140.783 84.7244V74.8752C140.272 74.9829 139.693 75.0367 139.048 75.0367C138.133 75.0367 137.514 74.8348 137.191 74.4312C136.868 74.0275 136.706 73.3279 136.706 72.3322V37.9811H140.783V26.9613H136.706V14.125H122.659V26.9613H118.582V37.9811H122.659V75.7229C122.659 79.1405 123.332 81.6835 124.677 83.352ZM79.6301 85.1688L90.7306 52.6342L80.6392 24.5801H95.3727L100.58 39.2732L105.706 24.5801H116.444L106.029 54.5313L116.928 85.1688H102.437L96.3011 68.1346L90.5692 85.1688H79.6301ZM49.6381 83.3928C52.1946 85.0074 55.6256 85.8147 59.9313 85.8147C64.5061 85.8147 68.1121 85.0477 70.7493 83.5139C73.4134 81.953 75.2971 79.6522 76.4005 76.6113C77.5307 73.5436 78.0958 69.7492 78.0958 65.2282V61.7972H63.7257V67.6098C63.7257 69.7088 63.5373 71.4176 63.1606 72.7362C62.7838 74.0279 61.8419 74.6738 60.335 74.6738C59.2855 74.6738 58.5185 74.3374 58.0341 73.6646C57.5766 72.9919 57.2806 72.1442 57.1461 71.1216C57.0115 70.0721 56.9443 69.0092 56.9443 67.9327V56.2267H77.9344C78.042 54.3968 78.0958 50.8177 78.0958 45.4895V41.0896C78.0958 29.6796 72.2832 23.9746 60.6579 23.9746C55.0067 23.9746 50.5665 25.4278 47.3372 28.3341C44.108 31.2135 42.4934 35.4653 42.4934 41.0896V65.4301C42.4934 69.7088 43.045 73.3686 44.1484 76.4095C45.2517 79.4504 47.0816 81.7781 49.6381 83.3928ZM63.7257 49.0416H56.8635V40.8878C56.8635 38.6273 57.173 37.0396 57.7919 36.1247C58.4378 35.2097 59.3393 34.7522 60.4964 34.7522C61.5728 34.7522 62.3802 35.2366 62.9184 36.2054C63.4566 37.1472 63.7257 38.708 63.7257 40.8878V49.0416ZM2.04708 85.1684V14.125H16.6594L23.1987 48.1532V14.125H36.923V85.1684H23.0372L15.9328 49.6467V85.1684H2.04708ZM463.323 197.189C464.571 198.682 466.969 199.428 470.516 199.428C472.106 199.428 473.672 199.281 475.213 198.988C476.754 198.718 477.672 198.535 477.965 198.437V189.483C477.5 189.581 476.974 189.63 476.387 189.63C475.555 189.63 474.993 189.447 474.699 189.08C474.406 188.713 474.259 188.077 474.259 187.171V155.943H477.965V145.925H474.259V134.256H461.489V145.925H457.782V155.943H461.489V190.254C461.489 193.361 462.1 195.673 463.323 197.189ZM438.848 199.427C432.683 199.427 428.304 197.849 425.711 194.693C423.142 191.538 421.857 186.902 421.857 180.786V163.832C421.857 159.233 422.347 155.404 423.325 152.346C424.304 149.288 426.016 147.001 428.463 145.484C430.909 143.967 434.31 143.209 438.664 143.209C441.698 143.209 444.413 143.747 446.811 144.824C449.233 145.9 451.141 147.478 452.535 149.557C453.93 151.637 454.627 154.181 454.627 157.19V165.594H441.233V157.887C441.233 156.615 441.049 155.551 440.682 154.695C440.315 153.814 439.52 153.374 438.297 153.374C436.144 153.374 435.068 154.903 435.068 157.961V184.639C435.068 185.764 435.313 186.804 435.802 187.758C436.291 188.688 437.098 189.152 438.224 189.152C439.374 189.152 440.169 188.7 440.609 187.795C441.074 186.865 441.306 185.789 441.306 184.565V175.318H454.627V184.932C454.627 187.966 453.942 190.571 452.572 192.749C451.226 194.901 449.367 196.553 446.994 197.703C444.621 198.852 441.906 199.427 438.848 199.427ZM388.647 197.593C390.213 198.816 392.464 199.428 395.399 199.428C397.895 199.428 399.717 198.878 400.867 197.777C402.041 196.676 403.044 195.073 403.876 192.969V198.841H417.013V143.797H403.913V182.585C403.913 184.517 403.729 186.095 403.362 187.318C403.02 188.542 402.164 189.153 400.794 189.153C399.522 189.153 398.714 188.725 398.372 187.869C398.029 186.988 397.858 185.447 397.858 183.245V143.797H384.647V184.786C384.647 187.722 384.929 190.291 385.491 192.492C386.054 194.67 387.106 196.37 388.647 197.593ZM358.189 199.428C355.645 199.428 353.627 198.963 352.135 198.033C350.642 197.104 349.529 195.82 348.795 194.18C348.061 192.541 347.572 190.621 347.327 188.419C347.107 186.217 346.997 183.857 346.997 181.337V157.411C346.997 153.179 347.743 149.754 349.236 147.136C350.752 144.519 353.309 143.21 356.905 143.21C359.572 143.21 361.614 143.785 363.033 144.934C364.477 146.06 365.59 147.638 366.373 149.668V134.256H379.73V198.841H366.373V193.006C365.639 194.988 364.66 196.553 363.437 197.703C362.238 198.853 360.489 199.428 358.189 199.428ZM363.217 189.153C364.464 189.153 365.296 188.652 365.712 187.649C366.152 186.646 366.373 184.847 366.373 182.254V159.099C366.373 157.802 366.177 156.53 365.785 155.283C365.418 154.011 364.587 153.374 363.29 153.374C361.871 153.374 360.978 153.974 360.611 155.173C360.244 156.371 360.061 157.68 360.061 159.099V182.254C360.061 186.853 361.113 189.153 363.217 189.153ZM309.567 182.364C309.567 193.739 315.047 199.427 326.007 199.427C336.992 199.427 342.484 193.739 342.484 182.364V160.273C342.484 155.086 341.028 150.952 338.117 147.869C335.206 144.762 331.169 143.209 326.007 143.209C320.87 143.209 316.845 144.762 313.934 147.869C311.023 150.952 309.567 155.086 309.567 160.273V182.364ZM328.356 188.125C327.891 188.908 327.108 189.299 326.007 189.299C324.906 189.299 324.111 188.908 323.622 188.125C323.157 187.318 322.925 186.302 322.925 185.079V158.181C322.925 154.976 323.952 153.374 326.007 153.374C328.062 153.374 329.09 154.976 329.09 158.181V185.079C329.09 186.302 328.845 187.318 328.356 188.125ZM283.953 198.839V143.795H297.31V149.924C297.947 147.795 299.072 146.132 300.686 144.933C302.301 143.734 304.332 143.135 306.778 143.135V154.107C305.702 154.107 304.417 154.229 302.925 154.474C301.433 154.694 300.124 155.012 298.998 155.428C297.873 155.819 297.31 156.26 297.31 156.749V198.839H283.953ZM246.229 143.796V208.014H259.587V192.969C261.177 197.274 263.758 199.427 267.33 199.427C270.07 199.427 272.284 198.779 273.972 197.482C275.684 196.161 276.932 194.375 277.715 192.125C278.522 189.85 278.926 187.305 278.926 184.492V157.41C278.926 153.178 278.179 149.753 276.687 147.135C275.219 144.518 272.687 143.209 269.091 143.209C266.425 143.209 264.37 143.784 262.926 144.934C261.507 146.059 260.394 147.637 259.587 149.667V143.796H246.229ZM265.165 187.134C264.896 188.504 264.076 189.189 262.706 189.189C261.287 189.189 260.406 188.504 260.064 187.134C259.746 185.74 259.587 184.052 259.587 182.07V160.566C259.587 158.585 259.746 156.909 260.064 155.539C260.406 154.144 261.287 153.447 262.706 153.447C264.076 153.447 264.896 154.132 265.165 155.502C265.458 156.848 265.605 158.536 265.605 160.566V182.07C265.605 184.076 265.458 185.764 265.165 187.134ZM216.947 199.428C213.399 199.428 211.002 198.682 209.754 197.189C208.531 195.673 207.919 193.361 207.919 190.254V155.943H204.213V145.925H207.919V134.256H220.69V145.925H224.396V155.943H220.69V187.171C220.69 188.077 220.836 188.713 221.13 189.08C221.424 189.447 221.986 189.63 222.818 189.63C223.405 189.63 223.931 189.581 224.396 189.483V198.437C224.102 198.535 223.185 198.718 221.644 198.988C220.102 199.281 218.537 199.428 216.947 199.428ZM167.848 182.364C167.848 193.739 173.328 199.427 184.287 199.427C195.272 199.427 200.764 193.739 200.764 182.364V160.273C200.764 155.086 199.308 150.952 196.397 147.869C193.486 144.762 189.449 143.209 184.287 143.209C179.15 143.209 175.126 144.762 172.214 147.869C169.303 150.952 167.848 155.086 167.848 160.273V182.364ZM186.636 188.125C186.171 188.908 185.388 189.299 184.287 189.299C183.187 189.299 182.391 188.908 181.902 188.125C181.437 187.318 181.205 186.302 181.205 185.079V158.181C181.205 154.976 182.232 153.374 184.287 153.374C186.342 153.374 187.37 154.976 187.37 158.181V185.079C187.37 186.302 187.125 187.318 186.636 188.125ZM152.545 199.428C150.392 199.428 148.643 198.902 147.298 197.85C145.952 196.774 144.876 195.147 144.068 192.969V198.841H130.711V134.256H144.068V149.668C144.876 147.638 145.989 146.06 147.408 144.934C148.851 143.785 150.906 143.21 153.573 143.21C157.169 143.21 159.701 144.519 161.169 147.136C162.661 149.754 163.407 153.179 163.407 157.411V184.493C163.407 187.306 163.016 189.85 162.233 192.125C161.474 194.376 160.288 196.162 158.673 197.483C157.083 198.78 155.04 199.428 152.545 199.428ZM147.114 189.19C148.509 189.19 149.353 188.505 149.646 187.135C149.94 185.765 150.086 184.077 150.086 182.071V160.567C150.086 158.536 149.94 156.848 149.646 155.503C149.353 154.133 148.521 153.448 147.151 153.448C145.732 153.448 144.863 154.145 144.545 155.54C144.227 156.91 144.068 158.585 144.068 160.567V182.071C144.068 184.052 144.227 185.74 144.545 187.135C144.863 188.505 145.72 189.19 147.114 189.19ZM80.2906 198.033C81.7829 198.963 83.8012 199.428 86.3454 199.428C88.6451 199.428 90.3942 198.853 91.593 197.703C92.8162 196.553 93.7947 194.988 94.5286 193.006V198.841H107.886V134.256H94.5286V149.668C93.7458 147.638 92.6327 146.06 91.1893 144.934C89.7704 143.785 87.7277 143.21 85.0611 143.21C81.4649 143.21 78.9084 144.519 77.3916 147.136C75.8993 149.754 75.1532 153.179 75.1532 157.411V181.337C75.1532 183.857 75.2632 186.217 75.4834 188.419C75.7281 190.621 76.2173 192.541 76.9513 194.18C77.6852 195.82 78.7983 197.104 80.2906 198.033ZM93.8681 187.649C93.4522 188.652 92.6205 189.153 91.3728 189.153C89.2689 189.153 88.2169 186.853 88.2169 182.254V159.099C88.2169 157.68 88.4004 156.371 88.7674 155.173C89.1343 153.974 90.0273 153.374 91.4462 153.374C92.7428 153.374 93.5745 154.011 93.9415 155.283C94.3329 156.53 94.5286 157.802 94.5286 159.099V182.254C94.5286 184.847 94.3085 186.646 93.8681 187.649ZM38.0166 198.84V143.796H51.1538V150.805C51.643 148.701 52.5482 146.915 53.8693 145.447C55.2148 143.955 57.0741 143.209 59.4471 143.209C63.2634 143.209 66.0279 144.383 67.7403 146.732C69.4773 149.08 70.3458 152.297 70.3458 156.383V198.84H57.3921V157.741C57.3921 156.664 57.1719 155.673 56.7316 154.768C56.2912 153.839 55.5328 153.374 54.4564 153.374C53.4534 153.374 52.7072 153.729 52.2179 154.438C51.7531 155.123 51.4596 155.991 51.3372 157.043C51.2149 158.071 51.1538 159.098 51.1538 160.126V198.84H38.0166ZM6.23832 134.256L0 198.841H12.55L13.3573 188.419H21.1369L22.0543 198.841H34.2741L28.1458 134.256H6.23832ZM20.1461 178.108H14.2747L16.7334 145.265H17.3205L20.1461 178.108Z"
    fill="url(#paint0_linear_1_57)"
  />
  <defs>
    <linearGradient
      id="paint0_linear_1_57"
      x1="650.147"
      y1="-33.8305"
      x2="-29.4945"
      y2="208.184"
      gradientUnits="userSpaceOnUse"
    >
      <stop stop-color="#49FF71" />
      <stop offset="1" stop-color="#FFF06C" />
    </linearGradient>
  </defs>
</svg>